<svg width="347" height="333" viewBox="0 0 347 333" fill="none" xmlns="http://www.w3.org/2000/svg">
<path d="M5.89118 176.206C-1.7494 235.304 41.6179 280.693 64.2567 296H304.086C325.663 268.048 361.39 188.884 331.677 95.8433C301.963 2.80282 271.72 4.00077 229.802 4.00076C187.885 4.00075 13.5318 117.107 5.89118 176.206Z" fill="black" fill-opacity="0.08"/>
<g clip-path="url(#clip0)">
<path d="M252.513 294.296C234.321 285.371 227.319 264.692 225.026 245.492C224.645 242.291 223.77 238.977 224.864 235.953C225.958 232.922 229.207 230.464 232.271 231.369C234.815 232.121 236.274 234.716 237.951 236.786C240.188 239.543 243.202 241.652 246.549 242.776C248.745 243.52 251.362 243.779 253.202 242.364C255.722 240.424 255.463 236.576 254.952 233.407C254.004 227.505 253.056 221.596 252.108 215.694C251.597 212.525 251.087 209.292 251.614 206.131C252.14 202.97 253.891 199.841 256.784 198.532C259.677 197.222 263.688 198.386 264.798 201.394C265.26 202.647 265.203 204.029 265.495 205.33C265.787 206.632 266.629 207.998 267.934 208.168C269.263 208.346 270.39 207.254 271.2 206.179C273.987 202.477 275.576 198.006 277.026 193.584C278.477 189.162 279.846 184.651 282.285 180.706C284.725 176.761 288.412 173.358 292.925 172.404C297.439 171.45 302.723 173.503 304.562 177.788C306.402 182.081 304.489 187.02 302.204 191.07C298.809 197.085 294.546 202.598 289.595 207.384C288.703 208.249 287.731 209.179 287.537 210.415C287.172 212.639 289.506 214.425 291.702 214.797C294.19 215.217 296.726 214.579 299.246 214.49C301.766 214.401 304.619 215.08 305.923 217.271C307.722 220.31 305.534 224.126 303.201 226.761C298.533 232.04 292.966 236.495 286.807 239.882C284.603 241.095 282.253 242.218 280.624 244.15C278.987 246.083 278.29 249.106 279.773 251.159C281.256 253.221 284.295 253.488 286.669 252.655C289.052 251.83 291.037 250.165 293.233 248.928C297.35 246.616 303.039 246.05 306.418 249.381C308.638 251.572 309.335 254.999 308.857 258.088C308.379 261.184 306.888 264.013 305.243 266.665C299.505 275.929 291.556 283.908 281.969 288.969C272.391 294.038 263.145 296.431 252.513 294.296Z" fill="#F5F5F5" fill-opacity="0.3"/>
<path d="M255.609 281.564C256.938 271.491 259.32 260.569 262.197 249.235C262.926 246.406 263.647 243.609 264.361 240.852C265.074 238.104 265.787 235.371 266.646 232.752C268.339 227.497 270.373 222.566 272.456 217.95C274.53 213.334 276.67 209.025 278.696 205.007C280.738 200.997 282.707 197.295 284.644 193.997C288.501 187.384 292.245 182.428 294.951 179.13C296.305 177.473 297.39 176.228 298.144 175.387C298.509 174.991 298.792 174.675 299.003 174.441C299.198 174.231 299.303 174.126 299.311 174.134C299.319 174.142 299.23 174.255 299.052 174.481C298.849 174.724 298.582 175.055 298.241 175.468C297.52 176.333 296.459 177.602 295.138 179.275C292.488 182.614 288.817 187.594 285.016 194.215C283.104 197.513 281.159 201.224 279.141 205.233C277.132 209.251 275.017 213.56 272.958 218.176C270.9 222.784 268.882 227.699 267.205 232.93C266.354 235.541 265.649 238.249 264.936 241.006C264.223 243.762 263.51 246.56 262.772 249.389C259.895 260.715 257.505 271.604 256.152 281.645" fill="white"/>
<path d="M266.808 232.703C266.767 232.72 266.589 232.251 266.289 231.402C265.989 230.553 265.592 229.308 265.122 227.764C264.182 224.676 263.04 220.367 261.792 215.614C260.544 210.852 259.336 206.575 258.356 203.512C257.869 201.976 257.464 200.739 257.173 199.89C256.889 199.033 256.743 198.556 256.784 198.54C256.824 198.524 257.035 198.976 257.391 199.809C257.748 200.642 258.218 201.862 258.753 203.382C259.839 206.422 261.111 210.706 262.359 215.468C263.574 220.165 264.676 224.409 265.519 227.659C265.908 229.122 266.24 230.359 266.5 231.345C266.743 232.202 266.848 232.687 266.808 232.703Z" fill="white"/>
<path d="M306.507 218.815C306.515 218.855 305.94 219.009 304.91 219.259C303.873 219.51 302.374 219.874 300.543 220.375C296.864 221.353 291.823 222.881 286.337 224.805C280.851 226.745 275.973 228.71 272.48 230.23C270.73 230.981 269.328 231.62 268.355 232.065C267.383 232.509 266.84 232.736 266.824 232.703C266.808 232.663 267.318 232.372 268.258 231.863C269.198 231.361 270.576 230.658 272.318 229.85C275.778 228.225 280.657 226.188 286.151 224.247C291.653 222.315 296.726 220.844 300.445 219.971C302.301 219.518 303.817 219.219 304.87 219.033C305.907 218.855 306.491 218.774 306.507 218.815Z" fill="white"/>
<path d="M255.998 280.739C255.981 280.747 255.86 280.594 255.641 280.287C255.39 279.915 255.082 279.462 254.717 278.92C253.915 277.732 252.805 275.978 251.46 273.787C248.769 269.421 245.236 263.269 241.436 256.43C237.635 249.591 234.167 243.415 231.574 238.993C230.301 236.85 229.256 235.08 228.486 233.77C228.154 233.196 227.878 232.728 227.652 232.348C227.465 232.016 227.376 231.838 227.392 231.83C227.408 231.822 227.53 231.976 227.749 232.283C228 232.655 228.308 233.099 228.673 233.649C229.475 234.838 230.585 236.592 231.93 238.783C234.621 243.148 238.146 249.3 241.954 256.139C245.755 262.978 249.223 269.155 251.816 273.569C253.088 275.711 254.134 277.481 254.904 278.791C255.236 279.365 255.511 279.834 255.738 280.214C255.925 280.545 256.014 280.731 255.998 280.739Z" fill="white"/>
<path d="M307.609 254.943C307.617 254.959 307.447 255.064 307.106 255.25C306.701 255.46 306.207 255.711 305.607 256.018C304.222 256.713 302.358 257.651 300.081 258.791C295.413 261.135 289.011 264.442 281.937 268.104C274.863 271.774 268.42 275.024 263.704 277.271C261.346 278.395 259.433 279.284 258.096 279.874C257.481 280.141 256.97 280.359 256.557 280.545C256.2 280.691 256.006 280.764 255.998 280.739C255.989 280.723 256.16 280.618 256.5 280.432C256.905 280.23 257.399 279.971 257.999 279.664C259.385 278.969 261.249 278.031 263.526 276.891C268.193 274.547 274.595 271.24 281.67 267.57C288.744 263.9 295.186 260.65 299.902 258.403C302.261 257.279 304.173 256.39 305.51 255.8C306.126 255.533 306.636 255.315 307.05 255.129C307.406 254.991 307.601 254.927 307.609 254.943Z" fill="white"/>
<path d="M83.3213 121.254C83.3213 121.254 77.4806 122.669 82.1124 135.272C86.7441 147.876 90.2349 154.261 90.2349 154.261C90.2349 154.261 90.9781 157.149 88.6021 157.295C86.226 157.441 81.2017 156.01 79.8201 158.725C78.386 161.54 80.1969 164.578 84.2477 167.539C88.2985 170.499 96.934 177.313 97.7138 177.934C98.4779 178.539 99.153 179.923 97.5463 180.283C95.9448 180.644 84.2791 180.45 84.5198 185.98C84.7606 191.509 97.405 197.904 98.771 198.63C100.142 199.356 100.409 200.003 100.194 200.776C99.9799 201.549 96.0704 201.115 92.7471 201.194C89.429 201.277 85.5927 201.951 86.0009 205.125C86.4092 208.3 93.4536 215.724 112.253 219.88L121.092 221.238L126.828 214.346C138.201 198.844 138.588 188.627 136.788 185.974C134.993 183.322 131.664 185.337 129.115 187.462C126.567 189.587 123.913 192.49 123.243 192.052C122.573 191.613 122.348 190.945 122.893 189.499C123.442 188.052 128.707 174.921 125.232 170.609C121.757 166.301 113.122 174.122 111.677 174.906C110.233 175.689 109.824 174.211 109.997 173.251C110.175 172.274 112.153 161.467 113.237 156.574C114.32 151.682 113.671 148.21 110.73 147.041C107.898 145.913 105.072 150.293 103.188 151.75C101.304 153.207 99.9538 150.549 99.9538 150.549C99.9538 150.549 98.3523 143.454 93.4955 130.934C88.6335 118.413 83.1905 121.29 83.1905 121.29" fill="white" fill-opacity="0.4"/>
<path d="M121.307 223.373C117.774 214.163 111.771 197.696 106.543 183.583C101.314 169.476 96.5728 156.705 93.0872 147.479C91.3445 142.874 89.9314 139.146 88.9475 136.557C88.4607 135.278 88.0839 134.275 87.8222 133.586C87.7019 133.252 87.6024 132.996 87.5344 132.813C87.4716 132.636 87.4454 132.547 87.4454 132.547C87.4454 132.547 87.4873 132.63 87.5606 132.803C87.6338 132.986 87.7385 133.241 87.8693 133.57C88.1415 134.254 88.534 135.246 89.0417 136.52C90.057 139.084 91.5015 142.806 93.2652 147.411C96.7979 156.621 101.571 169.376 106.799 183.489C112.028 197.602 117.999 214.085 121.485 223.305" fill="white"/>
<path d="M86.7703 161.007C86.7808 160.991 86.9901 161.08 87.3669 161.252C87.7438 161.425 88.2828 161.691 88.9475 162.03C90.2716 162.704 92.0719 163.68 94.045 164.798C95.9867 165.904 97.74 166.902 99.0798 167.669C99.6869 168.009 100.2 168.296 100.608 168.531C100.969 168.734 101.168 168.854 101.158 168.87C101.147 168.886 100.938 168.802 100.556 168.63C100.179 168.458 99.6398 168.186 98.9803 167.847C97.6614 167.158 95.8716 166.16 93.9037 165.043C91.9568 163.952 90.1983 162.965 88.848 162.208C88.2409 161.869 87.728 161.587 87.3146 161.357C86.9535 161.148 86.7598 161.028 86.7703 161.007Z" fill="white"/>
<path d="M101.833 168.374C101.765 168.337 103.623 164.542 105.978 159.89C108.338 155.238 110.301 151.494 110.369 151.531C110.437 151.567 108.584 155.363 106.224 160.015C103.868 164.667 101.901 168.411 101.833 168.374Z" fill="white"/>
<path d="M108.882 190.407C108.867 190.391 109.024 190.214 109.311 189.906C109.641 189.556 110.049 189.117 110.536 188.6C111.567 187.494 112.991 185.964 114.493 184.215C116 182.471 117.314 180.842 118.25 179.657C118.695 179.098 119.067 178.628 119.365 178.252C119.632 177.923 119.784 177.746 119.8 177.756C119.815 177.767 119.69 177.965 119.454 178.315C119.213 178.665 118.863 179.166 118.407 179.772C117.507 180.988 116.215 182.643 114.702 184.392C113.195 186.147 111.745 187.661 110.677 188.736C110.138 189.269 109.699 189.697 109.39 189.984C109.071 190.266 108.893 190.417 108.882 190.407Z" fill="white"/>
<path d="M93.7833 186.737C93.7886 186.716 94.0031 186.747 94.3904 186.82C94.8353 186.909 95.3744 187.019 96.0181 187.149C97.3893 187.436 99.2786 187.854 101.362 188.334C103.445 188.815 105.329 189.258 106.684 189.598C107.317 189.76 107.851 189.901 108.291 190.01C108.668 190.115 108.877 190.182 108.872 190.198C108.867 190.219 108.652 190.188 108.265 190.115C107.825 190.026 107.281 189.916 106.637 189.786C105.266 189.499 103.377 189.081 101.294 188.601C99.2106 188.12 97.3317 187.676 95.971 187.337C95.3377 187.175 94.8039 187.034 94.3643 186.925C93.9874 186.82 93.7781 186.752 93.7833 186.737Z" fill="white"/>
<path d="M97.5306 206.973C97.5358 206.953 97.808 206.994 98.3052 207.088C98.8495 207.198 99.5508 207.334 100.388 207.501C102.147 207.861 104.57 208.378 107.244 208.963C109.919 209.553 112.336 210.096 114.085 210.508C114.917 210.712 115.613 210.879 116.152 211.009C116.639 211.135 116.905 211.213 116.9 211.229C116.895 211.25 116.623 211.208 116.126 211.114C115.581 211.004 114.88 210.868 114.043 210.701C112.284 210.341 109.861 209.824 107.181 209.234C104.507 208.649 102.089 208.101 100.341 207.689C99.5089 207.485 98.8128 207.318 98.2738 207.188C97.7923 207.073 97.5254 206.994 97.5306 206.973Z" fill="white"/>
<path d="M116.466 210.999C116.45 210.989 116.638 210.754 116.989 210.346C117.376 209.903 117.879 209.328 118.481 208.634C119.742 207.188 121.469 205.177 123.322 202.906C125.175 200.64 126.797 198.541 127.959 197.017C128.519 196.286 128.985 195.675 129.34 195.21C129.67 194.787 129.859 194.558 129.874 194.568C129.89 194.579 129.733 194.829 129.429 195.273C129.131 195.717 128.681 196.354 128.121 197.132C126.996 198.688 125.394 200.807 123.542 203.079C121.689 205.35 119.93 207.344 118.632 208.759C117.984 209.464 117.45 210.033 117.073 210.414C116.696 210.806 116.481 211.009 116.466 210.999Z" fill="#E0E0E0"/>
<path d="M336 296.155C336 297.178 262.122 298.003 171.01 298.003C79.8619 298.003 6 297.173 6 296.155C6 295.137 79.8619 294.307 171.005 294.307C262.122 294.301 336 295.132 336 296.155Z" fill="#69797F"/>
</g>
<path d="M101.36 259.888C101.36 259.888 98.2924 259.888 97.4956 263.185C96.6989 266.483 96.5859 267.62 96.5859 267.62C96.5859 267.62 93.0956 270.758 96.5859 271.603C100.076 272.442 101.354 267.734 101.354 267.734L101.89 259.888C101.36 259.888 101.36 259.888 101.36 259.888Z" fill="#FFBE9D"/>
<path d="M136.31 199.727C136.31 199.727 147.215 163.063 148.327 161.486C150.158 158.872 167.812 151.021 167.812 151.021L172.545 141.347L201.888 136.65L209.154 146.02L229.59 161.01L228.163 212.871L227.402 249.083L231.266 294.284L138.451 294.141L142.649 284.622L147.055 202.406L136.31 199.727Z" fill="#4CADD7"/>
<path d="M148.886 194.786C148.874 194.786 148.862 194.685 148.85 194.489C148.838 194.257 148.821 193.977 148.803 193.638C148.767 192.899 148.737 191.834 148.714 190.512C148.666 187.869 148.66 184.22 148.779 180.19C148.898 176.16 149.106 172.517 149.308 169.879C149.409 168.564 149.498 167.498 149.576 166.76C149.611 166.421 149.641 166.141 149.671 165.915C149.695 165.724 149.712 165.623 149.724 165.623C149.736 165.623 149.736 165.724 149.73 165.921C149.718 166.153 149.707 166.433 149.695 166.772C149.653 167.558 149.594 168.611 149.522 169.891C149.38 172.528 149.201 176.172 149.088 180.196C148.975 184.22 148.94 187.869 148.934 190.506C148.928 191.792 148.928 192.846 148.922 193.632C148.916 193.971 148.91 194.251 148.91 194.483C148.904 194.685 148.898 194.786 148.886 194.786Z" fill="#263238"/>
<g opacity="0.3">
<g opacity="0.3">
<path opacity="0.3" d="M169.911 184.244C169.893 183.815 170.024 183.422 170.256 183.095C170.951 182.113 172.551 181.678 173.722 182.232C175.28 182.976 176.053 184.762 176.362 186.458C176.701 188.316 176.653 190.232 177.004 192.09C177.355 193.947 178.205 195.84 179.828 196.804C181.844 197.995 184.49 197.453 186.607 198.453C189.758 199.942 190.489 204.043 190.65 207.526C190.947 214.127 190.662 220.735 190.376 227.337C189.77 241.392 189.164 255.441 188.557 269.496L186.898 290.646L178.36 294.278L167.063 219.973L169.911 184.244Z" fill="black"/>
</g>
</g>
<path d="M172.343 178.231C172.349 178.237 172.277 178.285 172.123 178.35C171.968 178.41 171.718 178.464 171.403 178.422C170.785 178.35 169.845 177.838 169.465 176.725C169.28 176.184 169.233 175.547 169.292 174.892C169.346 174.231 169.495 173.546 169.637 172.832C169.923 171.397 170.238 169.826 170.565 168.171C171.231 164.867 171.855 161.879 172.319 159.718C172.551 158.682 172.741 157.819 172.884 157.164C173.026 156.563 173.11 156.229 173.133 156.235C173.157 156.241 173.11 156.581 173.003 157.188C172.884 157.849 172.723 158.718 172.533 159.759C172.123 161.932 171.534 164.927 170.868 168.23C170.529 169.879 170.208 171.445 169.917 172.886C169.607 174.302 169.334 175.618 169.673 176.654C169.994 177.684 170.856 178.202 171.421 178.297C172.016 178.41 172.331 178.19 172.343 178.231Z" fill="#263238"/>
<path d="M175.363 164.438C175.363 164.468 175.119 164.468 174.715 164.593C174.317 164.718 173.746 165.01 173.282 165.605C172.818 166.177 172.497 167.111 172.842 168.046C173.151 168.957 174.049 169.826 175.167 169.921C176.291 169.998 177.313 169.284 177.759 168.439C178.247 167.576 178.074 166.599 177.706 165.962C177.343 165.308 176.826 164.921 176.451 164.736C176.071 164.546 175.833 164.51 175.839 164.48C175.839 164.468 175.898 164.474 176.017 164.486C176.13 164.498 176.303 164.54 176.505 164.623C176.909 164.784 177.48 165.159 177.896 165.849C178.098 166.195 178.265 166.611 178.312 167.093C178.354 167.57 178.265 168.099 178.009 168.576C177.521 169.522 176.416 170.32 175.137 170.237C173.865 170.118 172.896 169.153 172.563 168.141C172.384 167.629 172.384 167.093 172.497 166.635C172.616 166.171 172.848 165.784 173.104 165.474C173.627 164.855 174.245 164.581 174.673 164.486C174.887 164.432 175.06 164.421 175.179 164.427C175.304 164.421 175.363 164.427 175.363 164.438Z" fill="#263238"/>
<path d="M185.346 202.341L131.732 192.626L106.712 198.12L162.71 208.216L185.346 202.341Z" fill="#6D644F"/>
<path d="M151.068 225.742C151.794 215.848 154.505 190.727 156.538 181.017C157.145 178.112 157.846 175.142 159.535 172.701C161.224 170.26 164.137 168.445 167.069 168.897C169.685 169.302 171.784 171.427 172.848 173.856C173.912 176.285 174.311 178.993 174.198 181.642C173.692 193.643 172.658 207.085 172.67 218.211" fill="#455A64"/>
<path d="M169.221 202.186C169.233 202.234 168.46 202.43 167.235 202.817C166.01 203.198 164.333 203.793 162.55 204.597C160.766 205.406 159.22 206.282 158.12 206.954C157.026 207.627 156.366 208.073 156.336 208.038C156.324 208.02 156.473 207.889 156.758 207.663C157.044 207.436 157.466 207.133 158.001 206.77C159.071 206.043 160.617 205.133 162.419 204.317C164.22 203.501 165.921 202.936 167.17 202.609C167.794 202.442 168.305 202.323 168.662 202.263C169.019 202.192 169.215 202.168 169.221 202.186Z" fill="#263238"/>
<path d="M170.113 190.768C170.125 190.822 169.304 190.994 168.02 191.393C166.736 191.786 164.993 192.441 163.18 193.393C161.366 194.352 159.844 195.417 158.792 196.251C157.739 197.084 157.127 197.656 157.091 197.62C157.074 197.602 157.216 197.447 157.478 197.174C157.739 196.9 158.138 196.525 158.655 196.078C159.684 195.191 161.206 194.084 163.043 193.114C164.88 192.149 166.658 191.524 167.966 191.179C168.62 191.006 169.156 190.887 169.53 190.828C169.905 190.768 170.113 190.744 170.113 190.768Z" fill="#263238"/>
<path d="M168.906 181.577C168.906 181.63 168.27 181.66 167.265 181.845C166.26 182.029 164.892 182.41 163.501 183.101C162.11 183.797 160.98 184.661 160.231 185.351C159.476 186.042 159.071 186.536 159.03 186.5C159.012 186.488 159.101 186.351 159.274 186.119C159.44 185.881 159.719 185.565 160.082 185.19C160.808 184.446 161.943 183.535 163.364 182.821C164.791 182.113 166.2 181.755 167.229 181.625C167.746 181.559 168.163 181.529 168.454 181.541C168.751 181.541 168.906 181.553 168.906 181.577Z" fill="#263238"/>
<path d="M162.253 210.199C162.253 210.223 162.265 210.241 162.265 210.253V244.601C162.265 246.107 161.052 247.661 158.822 248.84C156.599 250.013 153.352 250.822 149.297 250.828H149.244C141.127 250.81 136.276 247.619 136.276 244.595V210.247C136.276 210.241 136.282 210.223 136.282 210.193C136.282 210.176 136.276 210.152 136.276 210.122C136.293 206.765 138.755 203.258 141.24 199.794C142.911 197.484 143.304 194.15 143.381 192.192C143.387 191.96 143.399 191.751 143.399 191.561H143.173C142.103 191.561 141.235 190.817 141.235 189.9V188.447C141.235 187.519 142.097 186.775 143.173 186.775H155.362C156.165 186.775 156.86 187.191 157.152 187.787C157.247 187.995 157.3 188.209 157.3 188.441V189.894C157.3 190.811 156.438 191.555 155.362 191.555H155.136C155.136 191.745 155.142 191.954 155.154 192.186C155.231 194.144 155.63 197.472 157.3 199.788C159.78 203.252 162.247 206.753 162.265 210.116C162.265 210.158 162.253 210.182 162.253 210.199Z" fill="#FAFAFA"/>
<path d="M162.252 210.199C162.252 210.199 162.258 210.079 162.235 209.847C162.229 209.615 162.187 209.27 162.11 208.817C161.937 207.925 161.527 206.627 160.689 205.091C159.868 203.549 158.643 201.787 157.181 199.763C156.443 198.733 155.938 197.453 155.587 196.066C155.242 194.673 155.064 193.161 155.034 191.566V191.459L155.135 191.465C155.593 191.483 156.039 191.411 156.431 191.167C156.812 190.935 157.115 190.542 157.175 190.09C157.204 189.631 157.181 189.113 157.186 188.619C157.228 188.125 157.038 187.661 156.657 187.351C156.289 187.036 155.789 186.881 155.284 186.899C154.755 186.899 154.225 186.899 153.684 186.899C152.608 186.899 151.502 186.905 150.378 186.905C148.125 186.905 145.782 186.911 143.356 186.917C142.768 186.887 142.179 187.065 141.775 187.482C141.578 187.691 141.436 187.947 141.388 188.226C141.347 188.494 141.376 188.834 141.364 189.137C141.37 189.441 141.353 189.786 141.376 190.066C141.412 190.352 141.543 190.619 141.745 190.84C142.149 191.28 142.762 191.471 143.392 191.435L143.535 191.429V191.578C143.517 192.953 143.38 194.352 143.077 195.739C142.768 197.126 142.286 198.519 141.448 199.745C140.609 200.942 139.747 202.126 138.956 203.388C138.166 204.644 137.422 205.966 136.935 207.395C136.691 208.109 136.513 208.853 136.453 209.609C136.411 210.359 136.429 211.151 136.429 211.931C136.429 213.496 136.429 215.074 136.429 216.669C136.429 219.86 136.429 223.104 136.429 226.39C136.429 232.177 136.429 237.82 136.423 243.279C136.435 243.958 136.376 244.66 136.513 245.273C136.649 245.904 137.024 246.464 137.452 246.952C138.326 247.922 139.468 248.619 140.657 249.137C141.846 249.654 143.095 249.994 144.343 250.238C145.592 250.494 146.852 250.607 148.095 250.666C150.581 250.774 153.03 250.571 155.314 250.006C156.455 249.714 157.555 249.339 158.572 248.821C159.583 248.309 160.522 247.66 161.224 246.827C161.575 246.41 161.842 245.94 162.003 245.434C162.163 244.934 162.128 244.398 162.133 243.856C162.133 242.779 162.139 241.725 162.139 240.689C162.145 238.624 162.145 236.635 162.151 234.742C162.169 227.17 162.187 221.039 162.199 216.788C162.217 212.544 162.252 210.199 162.252 210.199C162.264 210.199 162.276 210.341 162.276 210.627C162.282 210.925 162.282 211.347 162.294 211.895C162.3 213.02 162.312 214.663 162.324 216.777C162.336 221.027 162.353 227.152 162.371 234.731C162.377 236.624 162.377 238.612 162.383 240.677C162.383 241.713 162.389 242.767 162.389 243.844C162.389 244.112 162.389 244.386 162.389 244.66C162.389 244.946 162.33 245.226 162.258 245.499C162.086 246.041 161.8 246.547 161.432 246.982C160.7 247.863 159.731 248.523 158.703 249.047C157.668 249.577 156.544 249.964 155.391 250.256C153.072 250.833 150.604 251.042 148.095 250.934C146.841 250.881 145.568 250.762 144.302 250.506C143.035 250.262 141.769 249.916 140.55 249.393C139.337 248.869 138.16 248.16 137.238 247.136C136.792 246.624 136.388 246.029 136.233 245.333C136.079 244.624 136.15 243.952 136.132 243.267C136.132 237.814 136.132 232.165 136.126 226.379C136.126 223.087 136.126 219.842 136.126 216.657C136.126 215.062 136.126 213.485 136.126 211.919C136.132 211.133 136.114 210.371 136.156 209.573C136.221 208.788 136.406 208.02 136.655 207.288C137.155 205.817 137.916 204.484 138.713 203.216C139.509 201.948 140.383 200.751 141.216 199.567C142.024 198.388 142.5 197.025 142.803 195.662C143.107 194.298 143.237 192.911 143.261 191.56L143.398 191.697C142.744 191.739 142.007 191.53 141.549 191.012C141.317 190.762 141.156 190.435 141.115 190.09C141.091 189.738 141.109 189.447 141.103 189.125C141.115 188.804 141.079 188.518 141.133 188.167C141.186 187.827 141.364 187.524 141.59 187.28C142.054 186.798 142.744 186.601 143.362 186.637C145.788 186.643 148.131 186.643 150.384 186.649C151.508 186.649 152.614 186.655 153.69 186.655C154.231 186.655 154.761 186.655 155.29 186.655C155.831 186.637 156.396 186.81 156.812 187.167C157.24 187.506 157.466 188.095 157.412 188.607C157.406 189.113 157.424 189.59 157.395 190.107C157.323 190.631 156.972 191.078 156.544 191.334C156.122 191.602 155.599 191.679 155.141 191.655L155.242 191.554C155.29 194.697 155.896 197.602 157.311 199.656C158.762 201.692 159.975 203.472 160.79 205.025C161.61 206.573 162.015 207.889 162.169 208.794C162.235 209.246 162.27 209.597 162.27 209.829C162.276 210.079 162.264 210.199 162.252 210.199Z" fill="#263238"/>
<path d="M154.445 191.489C154.445 191.572 152.014 191.643 149.017 191.643C146.02 191.643 143.588 191.572 143.588 191.489C143.588 191.405 146.02 191.334 149.017 191.334C152.019 191.334 154.445 191.405 154.445 191.489Z" fill="#263238"/>
<path d="M161.164 214.788C160.064 214.074 158.625 214.389 157.448 214.943C156.271 215.497 155.159 216.282 153.881 216.491C152.376 216.735 150.86 216.134 149.522 215.372C148.184 214.616 146.918 213.681 145.479 213.163C142.72 212.175 139.45 212.949 137.369 215.074V244.565C137.369 244.565 138.986 249.595 150.378 248.803C161.771 248.011 160.873 242.981 160.873 242.981L161.164 214.788Z" fill="#E8505B"/>
<path d="M130.983 194.715C131.316 192.542 130.751 190.244 129.449 188.476C128.147 186.708 126.119 185.488 123.949 185.172C123.747 185.143 123.521 185.125 123.354 185.244C123.116 185.411 123.105 185.756 123.128 186.048C123.325 188.155 124.205 190.191 125.602 191.78C126.999 193.37 128.908 194.495 130.971 194.959" fill="#455A64"/>
<path d="M119.287 210.139C121.392 214.485 124.419 217.413 128.17 217.556C128.92 217.58 129.485 217.092 130.204 217.044C130.573 217.068 130.995 217.33 131.405 217.497C131.625 217.58 131.839 217.646 132.029 217.64C135.906 217.431 139.206 214.705 141.43 210.139C144.528 203.752 143.57 196.882 139.295 194.798C138.689 194.501 138.112 194.274 137.547 194.114C136.857 193.929 136.174 193.84 135.419 193.864C134.104 193.888 132.594 194.245 130.561 194.965C130.495 194.989 130.418 195.019 130.353 195.042C126.88 193.507 124.103 193.501 121.416 194.798C117.135 196.882 116.184 203.752 119.287 210.139Z" fill="#E8505B"/>
<path d="M119.359 203.668C119.329 203.68 119.109 203.21 118.996 202.382C118.883 201.561 118.936 200.382 119.376 199.186C119.822 197.989 120.542 197.054 121.166 196.507C121.785 195.953 122.26 195.739 122.272 195.763C122.302 195.81 121.88 196.084 121.315 196.662C120.756 197.233 120.09 198.144 119.668 199.293C119.246 200.442 119.156 201.567 119.216 202.364C119.269 203.162 119.412 203.65 119.359 203.668Z" fill="#FAFAFA"/>
<path d="M120.144 206.704C120.06 206.722 119.918 206.424 119.828 206.031C119.739 205.639 119.733 205.311 119.816 205.287C119.9 205.27 120.042 205.567 120.132 205.96C120.227 206.353 120.233 206.686 120.144 206.704Z" fill="#FAFAFA"/>
<path d="M139.819 184.262C139.842 184.315 139.016 184.625 137.815 185.351C137.208 185.708 136.53 186.19 135.817 186.78C135.115 187.381 134.384 188.095 133.706 188.917C133.034 189.75 132.481 190.607 132.029 191.417C131.595 192.233 131.256 193.001 131.025 193.661C130.555 194.983 130.418 195.852 130.359 195.84C130.335 195.834 130.359 195.62 130.424 195.227C130.454 195.03 130.495 194.792 130.567 194.519C130.638 194.245 130.703 193.929 130.822 193.59C131.03 192.905 131.352 192.12 131.78 191.28C132.226 190.447 132.785 189.572 133.468 188.72C134.164 187.881 134.913 187.161 135.639 186.559C136.376 185.97 137.083 185.5 137.714 185.161C138.017 184.976 138.314 184.851 138.57 184.726C138.826 184.601 139.051 184.512 139.236 184.446C139.604 184.309 139.813 184.244 139.819 184.262Z" fill="#263238"/>
<path d="M106.712 198.12L99.975 283.205L162.764 298.403C162.764 298.403 184.662 290.968 184.96 290.462C185.257 289.956 185.34 202.341 185.34 202.341L162.71 208.222L106.712 198.12Z" fill="#A39167"/>
<path d="M205.194 99.0159L201.692 148.669C201.121 156.777 194.384 163.063 186.268 163.063C177.331 163.063 170.25 155.497 170.838 146.568C171.147 141.841 171.427 137.972 171.427 137.972C171.427 137.972 159.422 136.103 159.274 124.084C159.19 117.142 160.385 101.391 161.408 89.3185C162.104 81.1571 168.924 74.8946 177.099 74.8946H184.353C196.846 75.6328 206.27 86.5385 205.194 99.0159Z" fill="#FFBE9D"/>
<path d="M171.427 137.972C171.427 137.972 178.996 138.418 187.059 133.346C187.059 133.346 183.194 142.091 171.213 141.008L171.427 137.972Z" fill="#EB996E"/>
<path d="M163.662 101.718C163.876 101.945 165.172 100.98 167.015 100.986C168.858 100.962 170.214 101.915 170.41 101.689C170.511 101.588 170.291 101.183 169.703 100.754C169.12 100.325 168.133 99.9088 166.985 99.9147C165.838 99.9207 164.869 100.343 164.316 100.778C163.751 101.218 163.561 101.623 163.662 101.718Z" fill="#263238"/>
<path d="M183.628 103.844C183.598 104.749 184.335 105.522 185.281 105.576C186.226 105.63 187.017 104.933 187.047 104.028C187.077 103.123 186.339 102.344 185.394 102.296C184.454 102.242 183.664 102.933 183.628 103.844Z" fill="#263238"/>
<path d="M165.326 103.844C165.297 104.749 166.034 105.522 166.979 105.576C167.925 105.63 168.716 104.933 168.745 104.028C168.775 103.123 168.038 102.344 167.092 102.296C166.153 102.242 165.356 102.933 165.326 103.844Z" fill="#263238"/>
<path d="M181.612 101.718C181.826 101.945 183.128 100.98 184.972 100.986C186.815 100.962 188.171 101.915 188.367 101.689C188.462 101.588 188.248 101.183 187.659 100.754C187.077 100.325 186.09 99.9088 184.942 99.9147C183.794 99.9207 182.825 100.343 182.272 100.778C181.701 101.218 181.505 101.623 181.612 101.718Z" fill="#263238"/>
<path d="M174.917 115.416C174.923 115.309 173.782 115.113 171.92 114.874C171.451 114.827 171.005 114.732 170.922 114.41C170.809 114.071 171.005 113.559 171.237 113.011C171.683 111.868 172.14 110.672 172.628 109.422C174.56 104.308 175.964 100.105 175.756 100.028C175.547 99.9505 173.811 104.034 171.879 109.148C171.415 110.41 170.969 111.612 170.547 112.761C170.369 113.297 170.059 113.904 170.303 114.613C170.428 114.964 170.773 115.22 171.076 115.303C171.379 115.392 171.641 115.398 171.879 115.416C173.752 115.517 174.911 115.523 174.917 115.416Z" fill="#263238"/>
<path d="M180.346 116.696C180.049 116.678 180.043 118.684 178.33 120.107C176.618 121.536 174.483 121.31 174.471 121.589C174.442 121.714 174.947 121.976 175.845 122.006C176.731 122.036 178.021 121.75 179.067 120.881C180.114 120.006 180.56 118.845 180.631 118.024C180.708 117.178 180.483 116.684 180.346 116.696Z" fill="#263238"/>
<path d="M181.137 95.7179C181.321 96.218 183.158 95.9799 185.323 96.2418C187.493 96.4621 189.235 97.0931 189.526 96.6406C189.657 96.4263 189.348 95.9501 188.646 95.4679C187.945 94.9798 186.833 94.5214 185.531 94.3785C184.228 94.2357 183.039 94.444 182.254 94.7655C181.458 95.0869 181.059 95.4798 181.137 95.7179Z" fill="#263238"/>
<path d="M163.918 96.4329C164.245 96.8496 165.512 96.415 167.04 96.3971C168.568 96.3257 169.864 96.6769 170.161 96.2424C170.292 96.0281 170.09 95.6114 169.525 95.2125C168.966 94.8196 168.039 94.4922 166.986 94.5279C165.934 94.5636 165.024 94.9387 164.495 95.3732C163.954 95.7959 163.775 96.2305 163.918 96.4329Z" fill="#263238"/>
<path d="M201.145 108.04C201.347 107.951 209.392 105.6 209.13 113.815C208.868 122.03 200.681 120.071 200.675 119.839C200.669 119.601 201.145 108.04 201.145 108.04Z" fill="#FFBE9D"/>
<path d="M203.285 116.803C203.321 116.779 203.428 116.91 203.666 117.029C203.898 117.142 204.302 117.232 204.736 117.083C205.616 116.791 206.389 115.44 206.472 113.958C206.52 113.208 206.383 112.493 206.139 111.898C205.907 111.291 205.533 110.856 205.099 110.767C204.665 110.654 204.349 110.904 204.242 111.13C204.123 111.356 204.171 111.523 204.129 111.535C204.106 111.553 203.957 111.392 204.034 111.053C204.076 110.892 204.177 110.701 204.373 110.547C204.575 110.392 204.867 110.32 205.17 110.362C205.8 110.428 206.353 111.029 206.621 111.684C206.924 112.344 207.096 113.148 207.043 113.987C206.936 115.642 206.044 117.166 204.843 117.47C204.26 117.601 203.785 117.41 203.541 117.208C203.291 117.006 203.255 116.815 203.285 116.803Z" fill="#EB996E"/>
<path d="M205.711 107.761C204.456 107.457 202.292 108.612 201.763 109.785C201.228 110.957 201.109 112.285 200.58 113.464C200.051 114.636 198.843 115.702 197.589 115.404C196.727 115.202 196.108 114.386 195.876 113.529C195.651 112.672 195.74 111.761 195.853 110.88C196.334 107.04 197.143 103.236 197.298 99.373C197.452 95.5096 196.899 91.4914 194.878 88.1994C192.85 84.9074 189.128 82.4846 185.275 82.7941C182.724 83.0025 180.387 84.33 177.849 84.6872C174.846 85.1098 171.665 84.0443 169.518 81.9012C169.245 81.6274 167.96 80.7821 167.96 80.7821C167.96 80.5856 168.151 78.8652 168.823 78.2402C173.853 73.585 182.908 72.2872 189.55 73.96C196.192 75.6328 202.417 80.3296 205.271 86.5564C208.137 92.7891 207.287 101.457 205.711 107.761Z" fill="#263238"/>
<path d="M160.094 87.1517C161.17 89.646 163.911 91.0985 166.617 91.3783C169.316 91.6521 172.016 90.9497 174.626 90.2115C177.236 89.4674 184.246 88.3066 186.958 88.3899C187.362 88.4018 187.85 88.3958 188.07 88.0506C188.355 87.5922 187.897 87.0445 187.475 86.7112C183.895 83.9073 175.25 82.187 170.707 81.9905C166.165 81.8 161.396 83.7526 158.941 87.5803" fill="#263238"/>
<path d="M161.277 87.4672C161.277 87.4672 192.773 77.3234 206.395 104.6C206.395 104.6 208.428 97.7717 208.428 94.1107C208.428 91.664 206.966 77.1091 192.006 72.5313C192.012 72.5373 169.471 63.9293 161.277 87.4672Z" fill="#F93325"/>
<g opacity="0.4">
<g opacity="0.4">
<g opacity="0.4">
<path opacity="0.4" d="M161.277 87.4672C161.277 87.4672 164.863 83.1989 171.29 82.9132C180.578 82.5025 197.969 87.7291 206.395 104.6C206.395 104.6 208.428 97.7717 208.428 94.1107C208.428 91.664 206.966 77.1091 192.006 72.5313C192.012 72.5373 169.471 63.9293 161.277 87.4672Z" fill="black"/>
</g>
</g>
</g>
<path d="M205.081 101.409C200.413 94.2535 193.974 88.3423 186.732 83.8121C179.49 79.2819 167.52 74.8053 159.274 72.6147C156.794 71.9539 154.214 71.3824 151.687 71.817C149.16 72.2515 146.692 73.9362 146.062 76.4245C145.277 79.5379 150.795 84.3419 153.393 86.2349C155.985 88.122 161.277 90.8961 161.277 90.8961C161.277 90.8961 161.206 85.1217 170.44 83.9312C182.998 82.312 205.081 101.409 205.081 101.409Z" fill="#E8505B"/>
<path d="M179.252 77.8473C179.252 77.8473 174.715 75.3351 170.155 74.7458C171.088 74.0612 171.587 73.7278 172.628 73.2576C174.959 73.7219 177.325 74.3112 179.716 75.6447L179.252 77.8473Z" fill="#FAFAFA"/>
<path d="M218.816 159.753C218.816 159.753 210.206 169.606 211.157 183.315C211.288 185.214 211.383 187.869 211.615 189.762C213.066 201.525 215.314 212.437 215.314 212.437H216.134L246.155 205.014C246.155 205.014 241.63 178.922 240.596 175.457C237.266 164.367 225.862 158.265 225.862 158.265L218.816 159.753Z" fill="#4CADD7"/>
<path d="M184.966 290.462C184.966 290.462 184.954 290.313 184.954 290.015C184.954 289.712 184.948 289.277 184.948 288.712C184.948 287.557 184.942 285.86 184.942 283.681C184.948 279.294 184.96 272.942 184.978 265.037C185.031 249.214 185.108 227.182 185.198 202.341L185.388 202.489C181.737 203.436 177.878 204.442 173.966 205.454C170.125 206.454 166.337 207.436 162.752 208.365L162.865 208.216C163.019 220.67 162.978 232.421 162.918 243.041C162.853 253.655 162.799 263.144 162.752 271.073C162.722 279.002 162.722 285.378 162.74 289.765C162.752 291.956 162.758 293.653 162.764 294.813C162.764 295.385 162.764 295.819 162.764 296.123C162.764 296.415 162.752 296.569 162.752 296.569C162.752 296.569 162.74 296.421 162.734 296.123C162.728 295.819 162.716 295.385 162.704 294.813C162.686 293.653 162.663 291.956 162.627 289.765C162.573 285.372 162.538 279.002 162.544 271.073C162.573 263.138 162.603 253.655 162.645 243.041C162.686 232.421 162.716 220.676 162.562 208.222V208.103L162.68 208.073C166.266 207.145 170.053 206.156 173.894 205.162C177.807 204.144 181.666 203.144 185.317 202.198L185.513 202.15V202.353C185.388 227.194 185.275 249.226 185.192 265.049C185.138 272.954 185.097 279.306 185.067 283.693C185.043 285.878 185.031 287.569 185.019 288.724C185.013 289.289 185.001 289.724 185.001 290.027C184.978 290.313 184.966 290.462 184.966 290.462Z" fill="#263238"/>
<path d="M171.064 142.032C171.064 142.032 169.863 153.467 173.716 155.247C178.051 157.247 182.373 155.295 185.031 153.592C192.113 149.068 202.637 136.501 202.637 136.501L209.748 145.776C209.748 145.776 191.78 167.391 188.171 167.254C185.816 167.165 182.135 164.855 179.864 163.254C178.61 162.373 177.498 161.325 176.552 160.117L173.443 156.158C169.56 158.075 166.42 160.527 164.25 163.682C164.25 163.682 163.216 155.676 165.077 152.039C166.938 148.401 170.648 142.145 170.648 142.145L171.064 142.032Z" fill="#4CADD7"/>
<path d="M164.845 152.366C164.851 152.366 164.827 152.437 164.773 152.562C164.714 152.705 164.637 152.89 164.542 153.122C164.381 153.628 164.143 154.384 164.012 155.39C163.715 157.396 163.638 160.355 164.018 163.962L163.804 163.921C164.684 162.361 166.01 160.861 167.657 159.527C169.292 158.182 171.207 156.956 173.353 155.914L173.449 155.866L173.52 155.95C174.774 157.408 176.094 158.926 177.498 160.468C178.895 162.004 180.399 163.551 182.189 164.802C183.027 165.385 183.925 165.873 184.859 166.212C185.328 166.379 185.804 166.516 186.286 166.599C186.767 166.671 187.249 166.695 187.731 166.653C189.663 166.474 191.304 165.367 192.654 164.2L192.642 164.212C197.619 158.896 201.894 154.336 204.938 151.08C206.454 149.479 207.661 148.205 208.506 147.312C208.916 146.889 209.231 146.556 209.463 146.318C209.564 146.217 209.647 146.133 209.713 146.068C209.772 146.014 209.802 145.984 209.802 145.99C209.808 145.99 209.778 146.026 209.73 146.086C209.671 146.157 209.594 146.246 209.499 146.353C209.273 146.603 208.969 146.943 208.571 147.383C207.739 148.288 206.555 149.586 205.069 151.211C202.042 154.479 197.797 159.069 192.85 164.415L192.844 164.421L192.838 164.427C192.142 165.028 191.399 165.605 190.549 166.07C189.711 166.534 188.753 166.873 187.748 166.968C187.249 167.01 186.738 166.992 186.232 166.915C185.727 166.826 185.239 166.689 184.752 166.516C183.788 166.165 182.867 165.665 182.011 165.069C180.185 163.801 178.669 162.23 177.272 160.688C175.869 159.14 174.549 157.622 173.3 156.152L173.472 156.188C171.356 157.206 169.447 158.426 167.824 159.742C166.195 161.051 164.88 162.522 164.006 164.04L163.828 164.349L163.792 163.998C163.436 160.361 163.549 157.39 163.888 155.378C164.042 154.366 164.304 153.61 164.482 153.104C164.589 152.86 164.684 152.675 164.744 152.55C164.809 152.425 164.839 152.366 164.845 152.366Z" fill="#263238"/>
<g opacity="0.3">
<g opacity="0.3">
<path opacity="0.3" d="M165.285 162.004C165.011 162.456 165.249 163.51 165.725 163.742C166.2 163.974 166.789 163.801 167.205 163.474C167.622 163.147 167.901 162.688 168.204 162.254C168.918 161.23 169.774 160.307 170.743 159.527C171.7 158.753 173.014 158.099 174.114 158.652C174.846 159.021 175.244 159.813 175.601 160.545C177.087 163.599 178.883 166.712 181.802 168.451C184.734 170.201 188.474 170.272 191.691 169.135C194.907 167.998 197.642 165.748 199.848 163.141C202.054 160.533 203.779 157.563 205.491 154.604C206.835 152.277 208.202 149.878 208.619 147.223C208.244 147.431 207.382 148.77 207.007 148.979C207.007 148.979 193.153 164.26 191.845 165.046C190.537 165.831 186.952 171.118 176.778 159.7L173.413 156.045C173.413 156.051 167.003 159.152 165.285 162.004Z" fill="black"/>
</g>
</g>
<path d="M202.432 194.965L187.192 192.626L186.487 197.234L201.727 199.572L202.432 194.965Z" fill="white"/>
<path d="M243.634 205.591L219.827 211.347L222.574 233.814L177.028 268.055C175.203 268.311 173.341 268.603 172.307 268.865C169.816 269.49 165.416 275.746 164.173 276.365L155.296 283.223C155.296 283.223 154.517 286.342 158.566 285.717C162.615 285.092 167.128 281.979 167.598 281.979C168.067 281.979 169.483 282.931 168.811 284.943C168.216 286.735 165.772 292.873 165.772 292.873L162.764 298.409C162.764 298.409 175.791 298.838 179.442 293.992C181.915 290.706 189.532 281.39 189.532 281.39C189.532 281.39 243.14 254.982 246.357 249.458C250.733 241.945 243.634 205.591 243.634 205.591Z" fill="#FFBE9D"/>
<path d="M232.67 243.487C232.604 243.481 232.8 242.535 232.563 241.035C232.343 239.552 231.552 237.493 229.845 235.939C228.127 234.391 225.998 233.814 224.506 233.736C222.99 233.647 222.068 233.939 222.056 233.873C222.05 233.855 222.276 233.772 222.698 233.677C223.121 233.582 223.745 233.498 224.518 233.516C226.052 233.534 228.264 234.094 230.053 235.707C231.831 237.326 232.61 239.481 232.783 241.005C232.878 241.773 232.86 242.404 232.8 242.832C232.747 243.261 232.687 243.493 232.67 243.487Z" fill="#EB996E"/>
<path d="M173.472 290.027C173.514 290.039 173.401 290.611 173.157 291.527C172.913 292.438 172.533 293.712 171.843 294.998C171.153 296.29 170.178 297.266 169.334 297.742C168.912 297.98 168.543 298.117 168.282 298.171C168.02 298.23 167.871 298.23 167.865 298.212C167.847 298.153 168.442 298.064 169.221 297.552C170 297.052 170.904 296.099 171.57 294.849C172.247 293.593 172.652 292.355 172.949 291.462C173.246 290.575 173.431 290.015 173.472 290.027Z" fill="#EB996E"/>
<path d="M179.787 287.956C179.822 287.967 179.668 288.527 179.329 289.408C178.99 290.283 178.461 291.474 177.771 292.73C177.081 293.986 176.362 295.069 175.803 295.825C175.244 296.581 174.858 297.016 174.828 296.992C174.792 296.962 175.119 296.486 175.625 295.7C176.136 294.92 176.82 293.825 177.504 292.581C178.187 291.337 178.746 290.17 179.133 289.325C179.513 288.468 179.745 287.938 179.787 287.956Z" fill="#EB996E"/>
<path d="M179.614 249.083C179.638 249.083 179.674 249.351 179.721 249.839C179.775 250.327 179.817 251.042 179.84 251.917C179.894 253.673 179.811 256.113 179.43 258.774C179.044 261.435 178.425 263.799 177.878 265.465C177.605 266.299 177.361 266.972 177.177 267.424C176.992 267.882 176.879 268.126 176.861 268.12C176.844 268.115 176.915 267.853 177.064 267.382C177.218 266.918 177.426 266.239 177.67 265.4C178.164 263.721 178.74 261.37 179.121 258.727C179.501 256.084 179.614 253.667 179.62 251.917C179.626 251.042 179.614 250.333 179.603 249.845C179.591 249.357 179.597 249.089 179.614 249.083Z" fill="#263238"/>
<path d="M166.724 256.232C166.765 256.221 167.039 256.941 167.479 258.108C167.919 259.274 168.531 260.882 169.245 262.638C169.964 264.394 170.654 265.971 171.159 267.108C171.665 268.245 171.974 268.954 171.932 268.972C171.897 268.99 171.516 268.317 170.957 267.204C170.398 266.085 169.679 264.519 168.953 262.757C168.234 260.995 167.651 259.37 167.265 258.179C166.884 256.994 166.688 256.244 166.724 256.232Z" fill="#263238"/>
<path d="M163.275 271.645C163.275 271.656 163.15 271.692 162.9 271.758C162.621 271.823 162.258 271.912 161.812 272.02C161.337 272.133 160.76 272.264 160.076 272.377C159.392 272.496 158.625 272.657 157.757 272.764C156.895 272.889 155.95 273.02 154.927 273.103C153.91 273.222 152.816 273.27 151.669 273.341C149.368 273.43 146.829 273.419 144.177 273.222C141.525 273.008 139.016 272.639 136.756 272.204C135.633 271.96 134.556 271.746 133.569 271.478C132.57 271.24 131.661 270.966 130.828 270.71C129.99 270.472 129.253 270.198 128.599 269.978C127.945 269.757 127.386 269.543 126.934 269.359C126.506 269.186 126.161 269.043 125.893 268.936C125.655 268.835 125.536 268.781 125.536 268.769C125.542 268.757 125.667 268.799 125.911 268.876C126.185 268.972 126.535 269.091 126.969 269.246C127.427 269.412 127.986 269.609 128.646 269.811C129.306 270.019 130.043 270.275 130.888 270.502C131.72 270.74 132.636 271.002 133.629 271.228C134.616 271.49 135.686 271.692 136.81 271.924C139.063 272.347 141.561 272.704 144.201 272.918C146.841 273.109 149.362 273.133 151.657 273.061C152.804 273.002 153.892 272.96 154.903 272.853C155.92 272.776 156.865 272.663 157.722 272.549C158.584 272.454 159.357 272.311 160.041 272.21C160.724 272.109 161.307 272.002 161.783 271.906C162.235 271.823 162.597 271.758 162.883 271.704C163.144 271.651 163.275 271.633 163.275 271.645Z" fill="#263238"/>
<path d="M161.01 261.292C160.968 261.37 159.702 260.757 158.185 259.929C156.669 259.102 155.468 258.37 155.51 258.292C155.551 258.215 156.812 258.828 158.334 259.655C159.856 260.483 161.051 261.215 161.01 261.292Z" fill="#263238"/>
<path d="M246.155 205.014C246.155 205.019 246.107 205.031 246.006 205.061C245.893 205.091 245.751 205.133 245.566 205.18C245.162 205.281 244.591 205.43 243.86 205.615C242.35 205.99 240.185 206.526 237.462 207.198C231.98 208.532 224.28 210.407 215.343 212.58L215.189 212.615L215.165 212.455C214.535 208.365 213.684 203.948 212.858 199.358C212.317 196.293 211.847 193.286 211.526 190.363C211.211 187.441 211.056 184.607 211.021 181.91C210.985 179.214 211.086 176.636 211.467 174.255C211.841 171.88 212.501 169.707 213.417 167.867C214.35 166.04 215.51 164.557 216.699 163.444C217.888 162.331 219.089 161.575 220.13 161.099C221.176 160.623 222.05 160.432 222.639 160.313C222.936 160.271 223.162 160.248 223.317 160.23C223.471 160.212 223.549 160.206 223.549 160.212C223.549 160.218 223.471 160.236 223.323 160.259C223.156 160.289 222.936 160.325 222.651 160.373C222.068 160.515 221.206 160.718 220.183 161.212C219.161 161.694 217.983 162.462 216.818 163.569C215.658 164.683 214.523 166.153 213.613 167.963C212.721 169.784 212.079 171.933 211.722 174.291C211.36 176.648 211.264 179.214 211.306 181.904C211.354 184.595 211.508 187.417 211.829 190.328C212.15 193.239 212.62 196.239 213.167 199.299C213.994 203.882 214.844 208.306 215.462 212.407L215.284 212.288C224.232 210.157 231.938 208.323 237.432 207.014C240.161 206.377 242.338 205.865 243.848 205.514C244.585 205.347 245.156 205.216 245.566 205.127C245.751 205.085 245.899 205.055 246.012 205.031C246.101 205.014 246.149 205.008 246.155 205.014Z" fill="#263238"/>
<defs>
<clipPath id="clip0">
<rect width="330" height="177" fill="white" transform="translate(6 121.003)"/>
</clipPath>
</defs>
</svg>
